/* XPM */
static char *_55c0fc90ca644c3c5dc06e2a9645d85YrCqjNTqd1xGFi4U[] = {
/* columns rows colors chars-per-pixel */
"64 64 235 2 ",
"   c #1A1506",
".  c #775C08",
"X  c #584F2C",
"o  c #745035",
"O  c #74632F",
"+  c #766837",
"@  c #766148",
"#  c #8A6D1A",
"$  c #875B3D",
"%  c #905D33",
"&  c #916A39",
"*  c #867738",
"=  c #A76639",
"-  c #BD6E3C",
";  c #BE723D",
":  c #BA753C",
">  c #C06E3E",
",  c #C67B35",
"<  c #C3753D",
"1  c #C57B3C",
"2  c #C87A3A",
"3  c #D77E3B",
"4  c #8E5D43",
"5  c #976947",
"6  c #877245",
"7  c #997242",
"8  c #A46C4B",
"9  c #B76D42",
"0  c #A47648",
"q  c #BB7946",
"w  c #A56F50",
"e  c #AC7655",
"r  c #B87C56",
"t  c #B57B5B",
"y  c #B57F60",
"u  c #C77942",
"i  c #C47D41",
"p  c #C87D4C",
"a  c #AC8D20",
"s  c #AF923D",
"d  c #D69E15",
"f  c #E29B1C",
"g  c #DEA518",
"h  c #E5AD0F",
"j  c #ECB50E",
"k  c #F5B909",
"l  c #FABD0B",
"z  c #E3AF12",
"x  c #EDAB15",
"c  c #E8A91B",
"v  c #F0AF15",
"b  c #E4B012",
"n  c #EAB412",
"m  c #F3B214",
"M  c #F5B515",
"N  c #C88A27",
"B  c #C9812E",
"V  c #CE8C2B",
"C  c #D29224",
"Z  c #DD9722",
"A  c #D89827",
"S  c #C68034",
"D  c #CA873B",
"F  c #D28E34",
"G  c #D9813C",
"H  c #D2933A",
"J  c #E8893F",
"K  c #EE973F",
"L  c #F09D3D",
"P  c #DCA422",
"I  c #D1AF3B",
"U  c #D7B134",
"Y  c #E5A321",
"T  c #E6B623",
"R  c #F3AB3F",
"E  c #EBB93B",
"W  c #FFC107",
"Q  c #FFC10A",
"!  c #FFC413",
"~  c #FFC61A",
"^  c #FFC720",
"/  c #FFC825",
"(  c #F7C42B",
")  c #FFCB2D",
"_  c #FFCD34",
"`  c #FECE3B",
"'  c #FFEB3B",
"]  c #988C4F",
"[  c #A88445",
"{  c #B18E46",
"}  c #B9964A",
"|  c #A8885F",
" . c #B98658",
".. c #ACA46C",
"X. c #C58542",
"o. c #CA8443",
"O. c #C58B43",
"+. c #CD8A44",
"@. c #C7844C",
"#. c #D38243",
"$. c #D98542",
"%. c #D28D45",
"&. c #CB9245",
"*. c #CA9947",
"=. c #D29846",
"-. c #CD8958",
";. c #C8945B",
":. c #D69755",
">. c #E58D41",
",. c #EA8B41",
"<. c #E48748",
"1. c #E58B48",
"2. c #E88F48",
"3. c #E39446",
"4. c #EB9343",
"5. c #EE9D46",
"6. c #E7954B",
"7. c #E99449",
"8. c #E79A4C",
"9. c #ED9B49",
"0. c #ED9C53",
"q. c #EB9F59",
"w. c #C9A64A",
"e. c #CCAC4D",
"r. c #DBA44C",
"t. c #D1AC4A",
"y. c #CCB24C",
"u. c #D4B34C",
"i. c #D5BA4D",
"p. c #DDBA4C",
"a. c #CAA851",
"s. c #D8AB5A",
"d. c #D9B654",
"f. c #EEA345",
"g. c #E6A34F",
"h. c #EBA24B",
"j. c #E2AC4F",
"k. c #F0A444",
"l. c #F2A841",
"z. c #E7B54A",
"x. c #ECBB4E",
"c. c #F1BE46",
"v. c #E8A655",
"b. c #E6B352",
"n. c #E9B651",
"m. c #EABA52",
"M. c #E7B959",
"N. c #C58B68",
"B. c #CD9564",
"V. c #D29A68",
"C. c #D49F7D",
"Z. c #D8AF6F",
"A. c #D8A574",
"S. c #EFA86A",
"D. c #F0AA66",
"F. c #E9BA60",
"G. c #E2BA6E",
"H. c #ECAE73",
"J. c #F1AE74",
"K. c #F2B276",
"L. c #F5BA74",
"P. c #F3B57C",
"I. c #DAC34E",
"U. c #DCC555",
"Y. c #E4C84E",
"T. c #FFCF40",
"R. c #F2C549",
"E. c #EDD34F",
"W. c #FFD044",
"Q. c #F2D54F",
"!. c #FFD24C",
"~. c #E5C254",
"^. c #E5CC52",
"/. c #EBCC54",
"(. c #E7C85B",
"). c #ECD254",
"_. c #EED559",
"`. c #F2D652",
"'. c #FFD452",
"]. c #F4D955",
"[. c #F1D75B",
"{. c #FFD65B",
"}. c #DFCB61",
"|. c #EAC869",
" X c #E7D36A",
".X c #F7DA66",
"XX c #EDC875",
"oX c #E8D678",
"OX c #FFDC74",
"+X c #F0D37C",
"@X c #FEDD7C",
"#X c #F8E16B",
"$X c #F6E179",
"%X c #908D89",
"&X c #AEB194",
"*X c #A3A8A8",
"=X c #D8AB85",
"-X c #DDB383",
";X c #E5B689",
":X c #F3B983",
">X c #F2B986",
",X c #E1B697",
"<X c #E3BA9E",
"1X c #E3BFA1",
"2X c #E4C48C",
"3X c #EEDA86",
"4X c #F7DB88",
"5X c #F5C699",
"6X c #F3D794",
"7X c #FFE084",
"8X c #F6E38A",
"9X c #FFE28C",
"0X c #FFE492",
"qX c #F8E897",
"wX c #FFE69C",
"eX c #EDCDA5",
"rX c #F3DCA8",
"tX c #EDD3B6",
"yX c #F7DAB9",
"uX c #F8EAA6",
"iX c #FAEFB6",
"pX c #F7E5B8",
"aX c #F7E4BB",
"sX c #FBF0BB",
"dX c #A7BCC7",
"fX c #B5C8D0",
"gX c #F6DCC2",
"hX c #F0DED3",
"jX c #F8E6C6",
"kX c #F8E9C6",
"lX c #F4E5D5",
"zX c #FAE6D3",
"xX c #FAECD6",
"cX c #FAEFD8",
"vX c #FBF0D9",
/* pixels */
"W W W W W W W W W W W W W W ' ' W W W W W W W W W W ' ' W W W W W W W W W W W W W W W W W W W W W W W W ' ' W W W W W W W W W W ",
"W W W W W W W W W W W W W W ' ' W W W W W W W W W W ' ' W W W W W W W W W W W W W W W W W W W W W W W W ' ' W W W W W W W W W W ",
"W W W W W W W W W W W W W W ' ' W W W W W W W W W W ' ' W W W W W W W W W W W W W W W W W W W W W W W W ' ' W W W W W W W W W W ",
"W W W W W W W W W W W W W W ' ' W W W W W W W W W W ' ' W W W W W W W W W W W W W W W W W W W W W W W W ' ' W W W W W W W W W W ",
"W W W W W W W W W W W W W W ' ' W W W W W W W W W W ' ' W W W W W W W W W W W W W W W W W W W W W W W W ' ' W W W W W W W W W W ",
"W W W W W W W W W W W W W W ' ' ' ' ' ' ' ' ' ' ' ' ' ' W W W W W W W W W W W W W W W W W W W W W W W W ' ' W W W W W W W W W W ",
"W W W W W W W W W W W W W W ' ' ' ' ' ' ' ' ' ' ' ' ' ' W W W W W W W W W W W W W W W W W W W W W W W W ' ' W U U W W W W W W W ",
"W W W W W W W W W W W W W W ' ' W W W W W W W W W W ' ' W W W W W W W W W W W W W W W W W W W W W W W W ' ' U &X&XU T I W W W W ",
"W W W W W W W W W W W W W W ' ' W W W W W W W W W W ' ' Z Z Z Z Z Z Z Z Z m W W W W W W W W W W W W W W ' ' ..dXfX&X..&XI W W W ",
"W W W W W W W W W W W W W W ' ' W W W W W x f f f f f A O.O.O.O.O.O.O.O.O.A f f f f f f c W W W W W W W ' ' U &XfX*X*XfX..l W W ",
"W W W W W W W W W W W W W W ' ' W W W W x H O.O.O.O.O.*.I.I.I.I.I.I. XoX(.s.V.V.;.&.&.&.H Y c W W W W W ' ' W } %X%X%X&X| c W W ",
"W W W W W W W W W W W W W W ' ' W W W x , w.I.I.I.I.I.I.I.I.I.Y.Y.^.8XqX.XqXsXuX$X`..XOX|.o.< c x l W W ' ' M & 6 5 @ X.X.D c l ",
"' ' ' ' ' ' ' ' ' ' ' ' ' ' ' ' W W l B q t.I.I.I.I.I.I.I.I.Y.Q.`.`.].[.[.8XuX$X.X.X8XsXuX~.< X.D c l W d a N o 6 ] + y.s e.S l ",
"' ' ' ' ' ' ' ' ' ' ' ' ' ' ' ' W M x , t.I.I.I.I.I.I.I.I.Y.`.)._._.`.`.`.[..X.X8XiXiXiXqX~.X././.%.Y l .   O O * s + s X e.S l ",
"W W W W W W W W ~ ^ W W W W ' ' m 2 u - t.i.u.i.I.Y.Q.Q.`.`.).i.y.y./.`..X.XqXsXiXsXiXqX[.p.X.~././.D x k # % o * [ O y.] p.S l ",
"W W W W W W W ! @X9X~ W W W ' v , 9 N.r t.*.; *.i.i.p./.`.).e.0 7 7 w.).8XuXkXkXuXrX6X/.b.< 9  .i b.D x ' ' k # + * X w.y.t.F l ",
"W W W W W W ! 7X7XOX0X~ W l v , ; r t N.s.i.O.; i : : s i.w.$ $ d.p.7 w. X.Xs.s.d.@.@.X.i - 9 w r i ; x ' ' W k C % X 1 2 F M W ",
"W W W W W W @X9X/ ~ @XwXx , 2 : t.u. . .N.s.i.t.u.i.*.; q 0 % = i q 4 q -XeXXX/./.~.~.~.r.9 e e e.u.1 x ' ' W W l h h m m M W W ",
"W W Q W W W / 9XOX{.wXE , 1 t.u.I.).d.u. .N.B.;.s.).^.m.w.5 u.d.r 5 =XeXrXaX-X;.V.A.A.V. .w e e.U.^.D x ' ' W W W W W W W Q W W ",
"W ~ 0X` W W W / 7X0X) c 1 t.I.)._.8X(.I.U.;.t t  .[ 7 7 & o 7 7 5 e C.=X=XA.N.t t y y e e e.y.U.3X[.D x ' ' W W W W W W ` 0X~ W ",
"~ wXOXwX` W W W ) _ W l Y X.&..XqXiX|.I.).~.d.d. .5 4 5 5 4 o $ 5 t e e t t t ;.a.a.a.a.e.I.I.U. X3X@.g ' ' W W W W W ` wXOXwX~ ",
"! {.wXOX/ W W W W W W W l Z ; :.uXoXU.I.I.).`.^.{ 0 a.d.a.4 $ { 5 8 8 } a.a.a.u.I. XoX).^.I.I.i.&.B.q d ' ' W W W W W / OXwX{.! ",
"W W {.^ W W W W '..XW W W l Z q rXU.I.*.u.E.`.^.[ 0 ^.i.{ { & i.} } *.i.^.).).^.I.}.3X$X`.~.&.D C C C g ' ' l W W W W W ^ {.W W ",
"W W W W W W W '.0X9X.XW W W ' A V.*.&.; X.=.p. XZ.{ [ [ } } } =.*.*.~.oX.X`.]._.^.I.}.|.=.=.+.- V z b z ' ' j k !.{.W W W W W W ",
"W W W W W W !.0X'.` 0X{.W W ' ' A - - o.%.< D 2XuXG.[ { } 8 =.- u < ~.uXqX7X.X].^.u.*.O.- %.b.%.- V z b ' ' h R.0X9X'.W W W W W ",
"W W W W W !.9X!.W W ` 0X{.W ' ' l 2 o.j.XX-Xp B.eXuX Xe.8 9 u #.7.#.r.G.;XrXwX#Xm.X.> u %.g.m.b.%.+.V C ' ' ~.4X'.W.0X'.W W W W ",
"W W W W W OX7X_ W W / 4X7XQ ' ' Y < r.XXaXvX<Xp B.2XG.&.- #.9.v.9.9.#.u - A.2XG.&.- #.8.g.g.n.m.m.n.%.; ' ' |.0X` ( 7X@XW W W W ",
"W W W W W W OX9X) / 7X9XQ W ' ' , o.b.aXcXxXzX<X-.2 2 2 u 9.0.D.9.9.5.5.$.2 u u < #.6.8.8.g.g.m.m.m.n.i V ' z XX6X4X@XW W W W W ",
"W W W W W W W OX9X@X7XQ W W ' ' 2 j.XXaXxXzXzXgXP.4.4.4.4.9.9.9.9.5.l.R R f.5.6.<.1.6.6.8.g.g.n.m.m.m.+.; ' b b |.@Xl W W W W W ",
"W W W W W W W W OX@XQ W W W ' , i b.aXxXzXzXgXP.4.4.4.4.4.9.9.9.5.l.R R R R k.7.<.1.6.6.8.g.g.g.m.m.m.n.o.' b b b b j W W W W W ",
"W W W W W W W W Q ! W W W l ' 1 j.|.jXxXzXzX:X4.9.9.4.4.4.9.9.5.l.R R R R R R 4.<.<.1.6.8.g.g.h.x.x.m.m.o.' b z z z j W W W W W ",
"W W W W W W W W W W W W W m < i M.aXxXxXzXzXP.4.K.P.9.4.9.9.9.5.l.R R R R R R 9.<.<.1.6.6.8.h.z.c.c.x.m.+.' z z z z j W W W W W ",
"W W W W W W W W W W ! ~ W m 1 j.|.kXxXxXzXjXP.J.P.K.P.4.5.9.9.5.l.R R R R R R f.7.<.1.6.6.9.l.z.c.R.c.x.b.+.C b z z j W W W W W ",
"W W W W W W W W W W {.wX! m 1 M.aXxXxXzXzX>X9.9.K.P.9.4.9.9.9.9.5.l.R R R R k.5.7.<.1.6.6.8.h.z.c.R.x.m.m.o.C b z z j W W W W W ",
"W W W W W W W W W {.wXOX0Xv 1 F.kXxXxXzXzXJ.4.4.9.0.4.4.9.9.9.9.9.5.l.R R k.5.9.7.<.<.1.6.8.8.h.c.x.m.m.m.o.C b z z j W W W W W ",
"W W W W W W W W W ^ OXwX` v 1 F.kXxXxXzXzXK.4.4.4.4.4.4.9.9.9.5.9.9.5.5.5.5.9.9.7.<.<.<.q.H.H.v.x.m.m.m.m.o.C b z z j W W W W W ",
"W W W W W W W W W W / T.W m 1 F.kXxXxXzXzXK.4.4.4.4.4.4.4.9.9.9.9.9.9.9.k.5.9.9.7.<.<.<.q.>XP.v.n.m.m.m.m.o.C b z z j W W W W W ",
"W W W W W W W W W W W W W m 1 F.kXxXxXzXzXK.4.4.4.4.4.4.4.9.9.9.D.J.v.k.l.l.5.9.7.<.<.<.0.v.v.v.n.m.m.m.m.o.C b z z j W W W W W ",
"W W W W W W W W W W W W W m 1 F.kXxXxXzX5X0.4.4.4.4.4.4.4.9.9.0.:X:Xv.f.l.k.5.9.7.<.<.<.6.6.8.b.m.m.m.m.m.o.C b z z j W W W W W ",
"W W W W W W W W W W W W W m 1 F.kXxXxXzXS.4.4.4.4.4.4.4.4.9.9.9.D.D.9.9.f.5.9.9.7.<.<.6.6.6.9.n.m.m.m.m.m.o.C b z z j W W W W W ",
"W W W W W W W W W W W W W m 1 M.6XzXxX5Xq.4.4.4.4.4.4.4.4.9.9.9.9.9.9.9.9.9.9.9.7.<.1.6.6.6.h.n.m.m.m.m.r.F g b z z j W W W W W ",
"W W W W W W W W W W W W W m 1 b.M.6X6Xv.9.9.4.4.4.4.0.D.4.4.9.9.9.9.9.9.9.9.9.9.6.<.1.6.6.9.h.n.m.m.m.m.o.' b z z z j W W W W W ",
"W W W W W W W W W W W W W v 1 b.m.m.n.h.v.9.4.4.4.0.K.:XD.4.9.9.9.9.9.9.9.9.9.9.9.6.7.9.9.9.h.n.m.m.m.m.o.' b z z z j W W W W W ",
"W W W W W W W W W W W W W M F r.n.m.XXXXK.0.4.4.4.D.:XK.P.4.4.9.9.9.9.9.9.9.9.9.9.6.6.6.9.9.h.n.m.m.m.m.o.' b z z b k W W W W W ",
"' ' ' ' ' ' ' ' ' ' ' ' ' ' ' 1 b.XXjXxXzX>X0.4.4.4.D.P.4.4.4.9.9.9.9.9.9.9.9.9.2.<.<.1.6.9.h.n.m.m.m.m.o.' b z z j W W W W W W ",
"' ' ' ' ' ' ' ' ' ' ' ' ' ' ' 2 M.aXxXxXzXzXP.4.4.4.4.4.4.4.4.4.9.9.9.9.9.9.9.7.<.<.<.<.1.9.h.n.m.m.m.m.o.' b z z j W W W W W W ",
"W W W W W W W W W W W W W W ' 2 s.rXxXxXzXgXJ.4.4.4.4.4.4.4.4.4.4.9.9.9.9.9.9.7.<.<.<.<.1.9.h.n.m.m.m.j.i ' b z z j W W W W W W ",
"W W W W W W W W W W W W W W ' , 1 M.aXkXjXP.4.4.0.0.4.4.4.4.4.4.4.4.9.9.9.9.9.7.<.<.<.<.1.9.h.m.m.m.n.o.; ' T T z k W W W W W W ",
"W W W W W W W W W W W W W W ' ' 2 j.(.|.F.h.4.4.4.4.4.4.4.4.4.4.4.4.4.6.6.6.6.9.7.<.<.1.9.h.n.m.m.m.n.i ' ' 6X+XM W W W W W W W ",
"W W W W W W W W W W W W W W ' ' , j.m.m.M.n.h.4.4.4.>.3 G G G G 4.4.G 2 < < < $.9.9.9.9.9.h.m.m.m.m.b.i ' 6X@X0XOXW W W W W W W ",
"W W W W W W W W W W W W W W ' ' P D j.rXaXXXh.4.J G G G >.>.>.>.4.4.>.>.>.>.3.6.9.9.9.9.9.h.m.m.m.n.o.; ' ' 6X7X/ W W W W W W W ",
"W W W W W W W W W W W W W l ' ' g 1 j.aXcXjXXX3.3 G >.>.4.4.4.,.,.,.,.,.,.,.4.9.9.9.9.9.h.n.m.m.m.b.1 C ' ' E ( W W W W W W W W ",
"W W W W W W W W W W W W W l ' ' z A +.tXvXcXyXA.G >.4.5.4.4.,.,.,.,.,.,.,.,.,.4.9.9.9.9.h.m.m.m.b.+.; d ' ' j l .XOXW W W W W W ",
"W W W W W W W W W W W W l j ' ' z z , G.aXlXhXtXH.K L L K ,.,.,.,.,.,.,.,.,.,.,.J.eXeX2Xn.m.m.b.+.; V c 3XR.l .X0X7XOXW W W W W ",
"W W W W W W W W W W W W l z ' ' b z , r.XXtXlXxXyX5XL.L 4.,.,.,.,.,.,.,.,.,.J S.yXzXzXjXrX6Xm.b.< V z +X4X0XW.` 9X9X!.W W W W W ",
"W W W W W W W W W W W W l b ' ' z z C %.j.A.tXvXxXcXyXK.4.4.,.,.,.J J ,.,.,.S.yXzXzXzXzXcXzX6Xb.1 P +X4X) '.9XW.T.'.W W W W W W ",
"W W W W W W W W W W W W l b ' ' z z z C %.< A.aXvXxXxXyX>X>XP.4.4.P.>X0.,.,.5XzXzXzXxXvXvXvXjX:.V c +X4X) '.9X!.W W W W W W W W ",
"W W W W W W W W W W W W l b ' ' z z z z C ; o.A.tXvXcXzXzXzXjX:X0.yXzXD.4.4.5XzXzXcXgX,X,X,X=XF z z b @X7X0XW.W W W W W W W W W ",
"W W W W W W W W W W W W l b ' ' z z z z z C B B V.1X1X<X<X<X<X,X:.;X,X:.$.$.A.<X<XeXC.; B B V z z z z l @XW.W W W W W W W W W W ",
"W W W W W W W W W W W W l z ' ' z z z z z z z z A S S S S S S S , S , , S S S S S S , V z z z z z z j l ' ' W W W W W W W W W W ",
"W W W W W W W W W W W W l n ' ' z z z z z z z z z z ' ' z z z z z z z z z z z z z z z z z z z z z j l W ' ' W W W W W W W W W W ",
"W W W W W W W W W W W W W l ' ' z z z z z z z z z z ' ' z z z z z z z z z z z z z z z z z b n n j l W W ' ' W W W W W W W W W W ",
"W W W W W W W W W W W W W W ' ' b z z z z z z z z z ' ' ' ' ' ' ' ' ' ' ' ' ' ' ' ' ' ' ' ' ' ' ' ' ' ' ' ' W W W W W W W W W W ",
"W W W W W W W W W W W W W W ' ' l b z z z z z z z b ' ' ' ' ' ' ' ' ' ' ' ' ' ' ' ' ' ' ' ' ' ' ' ' ' ' ' ' W W W W W W W W W W "
};
