/* XPM */
static char *efd44f2435da400ed0f7835a8b174799Vv7QAWXoggO4TSxI[] = {
/* columns rows colors chars-per-pixel */
"64 64 9 1 ",
"  c black",
". c #990030",
"X c #ED1C24",
"o c #FFC107",
"O c #FFC20E",
"+ c #FFEB3B",
"@ c #4D6DF3",
"# c #EB13EB",
"$ c #00B7EF",
/* pixels */
"OOOOOOOOOOOOOO++OOOOOOOOOO++OOOOOOOOOOOOOOOOOOOOOOOO++OOOOOOOOOO",
"OOOOOOOOOOOOOO++OOooOOooOO++OOOOOOOOOOOOOOOOOOOOOOOO++OOOOOOOOOO",
"OOOOOOOOOOooOO++OOooOOooOO++OOooOOOOooOOOOooOOOOooOO++OoooOOOOOO",
"OOOOOOOOOOooOO++OOOOOOOOOO++OOooOOOOooOOOOooOOOOooOO++OoooOOOOOO",
"OOOOOOOOOOooOO++OOOOOOOOOO++OOOOOOOOOOOOOOOOOOOOOOOO++OoooOOOOOO",
"OOOOOOOOOOooOO++++++++++++++OOOOOOOOOOOOOOOOOOOOOOOO++OoooOOOOOO",
"OOOOOOOOOOooOO++++++++++++++OOOOOOOOOOOOOOOOOOOOOOOO++OoooOOOOoo",
"OOOOOoOOOOooOO++OOOOOOOOOO++OOOOOOOOOOOOOOOOOOOOooOO++OoooOOOOoo",
"OOOOooOOOOOOOO++OOOOOOOOOO++O      OOOOOOOOOOOOOooOO++OoooOOOOoo",
"OOOOooOOOOOoOO++OooooooooO++O      OOOOOOOOOOOOOooOO++OoooOOOOoo",
"OOOOOOOOOOOOOO++OooooooooO++O      OOOOOOOOOOOOOOOOO++oooooooooo",
"OOOOOOOOOOOOOO++OooooooooO   XXX...   OOO         OO++oooooooooo",
"++++++++++++++++oooooooooo   XXX...   ooo         oo++++++++++++",
"++++++++++++++++OooooooooO   XXX...   OOO         OO++++++++++++",
"OOOOOOOOOOOOOO++Ooooooo   XXXXXXXXX...   ...XXXXXX   +OOoOOOOOOO",
"OOOOOOOOOOOOOO++Ooooooo   XXXXXXXXX...   ...XXXXXX   +OOoOOOOOOO",
"OOOOooOOOOooOO++Ooooooo   XXXXXXXXX...   ...XXXXXX   +OOooOOOOoo",
"OOOOooOOOOooOO++o   ooo   ...XXXXXX...   XXXXXXXXX   +OOooOOOOoo",
"oooooooooooooo++o   ooo   ...XXXXXX...   XXXXXXXXX   +OOooOOOOOO",
"oooooooooooooo++o   ooo   ...XXXXXX...   XXXXXXXXX   +OOooOOOOOO",
"OOOOOOOO   Ooo   oooooo   ...XXX.........XXXXXX...   +OOooOOOOOO",
"OOOOOOOO   Ooo   oooooo   ...XXX.........XXXXXX...   +OoooOOOOOO",
"OOOOOOOo   ooo   oooooo   ...XXX.........XXXXXX...   +OOooOOOOOO",
"OOOOOOOoooo                  ..................   OO++OOooOOOOOO",
"OOOOOOOOooO                  ..................   OO++OOOOOOOOOO",
"OOOOOOOOooO                  ..................   OO++OOOOOOOOOO",
"OOOOOOOOooOOoo   ############@@@   @@@$$$         OO++OOoOOOOOOO",
"OOOOOOOOooOOoo   ############@@@   @@@$$$         OO++OOoOOOOOOO",
"OOOOOOOOoooooo   ############@@@   @@@$$$         OO++OOooOOOOOO",
"OOOOOOOOooo   ######      ######@@@   @@@$$$   @@@   +OOooOOOOOO",
"OOOOOOOOooO   ######      ######@@@   @@@$$$   @@@   +OOOOOOOOOO",
"OOOOOOOOooO   ######      ######@@@   @@@$$$   @@@   +OOOOOOOOOO",
"OOOOOOOOooO   ######      ######@@@   @@@$$$   @@@@@@   ooOOOOOO",
"OOOOOOOOooO   ######      ######@@@   @@@$$$   @@@@@@   ooOOOOOO",
"OOOOOOOOooo   ######      ######@@@   @@@$$$   @@@@@@   ooOOOOOO",
"OOOOOOOOooo   ##################@@@   @@@$$$   @@@   +OOooOOOOOO",
"OOOOOOOOooO   ##################@@@   @@@$$$   @@@   +OOOOOOOOOO",
"OOOOOOOOooO   ##################@@@   @@@$$$   @@@   +OOOOOOOOOO",
"OOoOOOOOooOOoo   ############@@@   @@@$$$         OO++OOooOOOOOO",
"OOoOOOOOooOOoo   ############@@@   @@@$$$         OO++OOooOOOOOO",
"OOooooOOoooooo   ############@@@   @@@$$$         OO++OOooOOOOOO",
"OOooooOOoooooo++o                  @@@         OOOOO++OOooOOOOOO",
"OOooOOOOooOOoo++o                  @@@         OOOOO++OOOOOOOOOO",
"OOooOOOOooOOoo++o                  @@@         OOOOO++OOOOOOOOOO",
"++++++++++++++++oooOOOooOO++O         OOOOOO   OoOOO++++++++++++",
"++++++++++++++++ooooOOooOO++O         OOOOOO   OoOOO++++++++++++",
"OOooOOOOooOooo++ooooOOooOO++O         OOOOOO   OoOOO++OoooOOOOOO",
"OOooOOOOooOooo++ooooOOooOO++OOooOOOOOO   OOOOOO   OO++OoooOOOOOO",
"OOooooOOoOoooo++oooOoOooOO++OOooOOOOOO   OOOOOO   OO++OOooOOOOoo",
"OOooooOOoOoooo++oooooOoooo++OOOOOOOOOO   OOOOOO   OO++OOooOOOOoo",
"oooooooooooooo++oooooooooo++OOooOOOOOO   OOOOOO   OO++OOooOoOOOO",
"oooooooooooooo++oooooooooo++OOooOOOOOO   OOOOOO   OO++OOooOOOOOO",
"OOOOOOOOOooooo++ooooOooooO++OOooOOOOOO   OOOOOO   OO++OOooOOOOOO",
"OOOOOoOOOOooOo++ooooOooooO++OOooOOOOOOOOOOOOOOOOooOO++OOoooOOOOO",
"OOOOooOOOOooOO++ooooOOooOO++OOooOOOOOOOOOOOOOOOOooOO++OOooOOOOOO",
"OOOOooOOOOooOO++ooOoOOooOO++OOooOOOOOOOOOOOOOOOOooOO++OOooOOOOOO",
"OOOOoOOOOOooOO++ooOoOOooOO++OOooOOOOOOOOOOOOOOOOooOO++OoooOOOOOO",
"OOOOOOOOOOooOO++ooooOOooOO++OOooOOOOOOOOOOOOOOOOooOO++OOoooOOOOO",
"OOOOOOOOOOooOO++ooooOOooOO++OOooOOOoooooooooOOOOooOO++OOooOOOOOO",
"OOOOOOOOOOOoOO++oOOOOOooOO++OOooOOOoooooooooOOOOooOO++OOooOOOOOO",
"OOOOOOOOOOooOO++oOOOOOooOO++OOooOOOOOOOOOOOOOOOOOOOO++OOooOOOOOO",
"OOOOOOOOOOooOO++oOooOOooOO++OOOOOOOOOOOOOOOOOOOOOOOO++OOooOOOOOO",
"OOOOOOOOOOOOOO++OOooOOooOO++++++++++++++++++++++++++++OOooOOOOOO",
"OOOOOOOOOOOOOO++OOOOOOOOOO++++++++++++++++++++++++++++OOooOOOOOO"
};
