/* XPM */
static char *_01580b329a64846cddd571631624966SM2dEKTEWqNRhRGU[] = {
/* columns rows colors chars-per-pixel */
"64 64 5 1 ",
"  c #D6971A",
". c #FFC107",
"X c #FFC20E",
"o c #FFEB3B",
"O c white",
/* pixels */
"XXXXXXXXXXXXXXooXXXXXXXXXXooXXXXXXXXXXXXXXXXXXXXXXXXooXXXXXXXXXX",
"XXXXXXXXXX..XXooX.......XXooXXXXXXXXXXXXXXXXXXXXXXXXooXX..XXXXXX",
"XXXXXXXXXX..XXooX.......XXooXX....................XXooXX..XXXXXX",
"XXXXXXXXXX..XXooXXXXXXXXXXooXX....................XXooXX..XXXXXX",
"XXXXXXXXXX..XXooXXXXXXXXXXooXXXXXXXXXXXXXXXXXXXXXXXXooXX..XXXXXX",
"XXXXXXXXXX..XXooooooooooooooXXXXXXXXXXXXXXXXXXXXXXXXooXX..XXXXXX",
"XXXXXXXXXX..XXooooooooooooooXXXXXXXXXXXXXXXXXXXXXXXXooXX..XXXX..",
"XXXXXXXXXX..XXooXXXXXXXXXXooXXXXXXXXXXXXXXXXXXXX..XXooXX..XXXX..",
"XXX.........XXooX.......XXooX.....XXXXXXXXXXXXXX..XXooXX..XXXX..",
"XXX.........XXooX.......XXooX.....XXXXXXXXXXXXXX..XXooX...XXXX..",
"XXXXXXXXXXXXXXooX.......XXo         XXXXXXXXXXXX..XXoo..........",
"XXXXXXXXXXXXXXooXXXXXXXX               XXXXXXXXX..XXoo..........",
"oooooooooooooooo......                   ...........oooooooooooo",
"ooooooooooooooooX...                       XXXXX..XXoooooooooooo",
"XXXXXXXXXXXXXXooXX.                         XXXX..XXooXX.XXXXXXX",
"XXXXXXXXXXXXXXooX                             XX..XXooXX.XXXXXXX",
"XXX.........XXoo                               XXXXXooXX..XXXX..",
"XXX.........XXo                                 XXXXooXX..XXXX..",
"..............o                                 XXXXooXX..XXXXXX",
"..............                                   XXXooXX..XXXXXX",
"XXXXXXXX.XXX.                                     XXooXX..XXXXXX",
"XXXXXXXX.....                                     XXooX...XXXXXX",
"XXXXXXX.....                                       XooXX..XXXXXX",
"XXXXXXX.....                                       XooXX..XXXXXX",
"XXXXXXXX..X                                         ooXX..XXXXXX",
"XXXXXXXX..X                                         ooXX..XXXXXX",
"XXXXXXXX..X         OOOO  OO  OO  OO  OOOOOO        ooXX..XXXXXX",
"XXXXXXXX..          OOOO  OOOOOO  OO  OOOOOO         oXX..XXXXXX",
"XXXXXXXX..          OO     OOOO   OO    OO           oXX..XXXXXX",
"XXXXXXXX..          OO      OO    OO    OO           oXX..XXXXXX",
"XXXXXXXX..          OOOO    OO    OO    OO           oXX..XXXXXX",
"XXXXXXXX..          OOOO    OO    OO    OO           oXX..XXXXXX",
"XXXXXXXX..          OO      OO    OO    OO           oXX..XXXXXX",
"XXXXXXXX..          OO     OOOO   OO    OO           oXX..XXXXXX",
"XXXXXXXX..          OOOO  OOOOOO  OO    OO           oXX..XXXXXX",
"XXXXXXXX..          OOOO  OO  OO  OO    OO           oXX..XXXXXX",
"XXXXXXXX..X                                         ooXX..XXXXXX",
"XXXXXXXX..X                                         ooXX..XXXXXX",
"XX.XXXXX..X                                         ooXX..XXXXXX",
"XX.XXXXX..XX                                       XooXX..XXXXXX",
"XX..........                                       XooXX..XXXXXX",
"XX...........                                     XXooXX..XXXXXX",
"XX..XXXX..XX.                                     XXooXX..XXXXXX",
"XX..XXXX..XX..                                   XXXooXXXXXXXXXX",
"ooooooooooooooo                                 XXXXoooooooooooo",
"ooooooooooooooo                                 XXXXoooooooooooo",
"XX..XXXX..X...oo                               X..XXooX...XXXXXX",
"XX..XXXX..X...oo.                             XX..XXooX...XXXX..",
"XX............oo...                         XXXX..XXooXX..XXXX..",
"XX............oo....                       XXXXX..XXooXX..XXXX..",
"..............oo......                   XXXXXXX..XXooXX..X.XX..",
"..............oo........               XXXXXXXXX..XXooXX..XXXXXX",
"XXXXXXXXX.....oo....X....Xo         XXXXXXXXXXXX..XXooXX..XXXXXX",
"XXXXX.XXX...X.oo....X....XooX...XXXXXXXXXXXXXXXX..XXooXX...XXXXX",
"XXXX..XXX...XXoo....XX..XXooXXXXXXXXXXXXXXXXXXXX..XXooXX..XXXXXX",
"XXXX..XXX...XXoo....XX..XXooXXXXXXXXXXXXXXXXXXXX..XXooXX..XXXXXX",
"XXXX.XXXX...XXoo....XX..XXooXXXXXXXXXXXXXXXXXXXX..XXooX...XXXXXX",
"XXXXXXXXX...XXoo....XX..XXooXXXXXXXXXXXXXXXXXXXX..XXooXX...XXXXX",
"XXXXXXXXX...XXoo....XX..XXooX...............XXXX..XXooXX..XXXXXX",
"XXXXXXXXX...XXoo.X..XX..XXooX...............XXXX..XXooXX..XXXXXX",
"XXXXXXXXX...XXoo.X..XX..XXooXXXXXXXXXXXXXXXXXXXXXXXXooXX..XXXXXX",
"XXXXXXXXX...XXoo.X..XX..XXooXXXXXXXXXXXXXXXXXXXXXXXXooXX..XXXXXX",
"XXXXXXXXX...XXooXX..XX..XXooooooooooooooooooooooooooooXX..XXXXXX",
"XXXXXXXXX...XXooXXXXXX..XXooooooooooooooooooooooooooooXX..XXXXXX"
};
