/* XPM */
static char *a68abbc585344ea5c3f4d1a32c0ab63aVSvvUxubOUc9aBzL[] = {
/* columns rows colors chars-per-pixel */
"64 64 158 2 ",
"   c black",
".  c #050608",
"X  c #18191A",
"o  c #21150B",
"O  c #331F0D",
"+  c #302B26",
"@  c gray22",
"#  c #402B15",
"$  c #402F1D",
"%  c #4C341B",
"&  c #563A1C",
"*  c #403C38",
"=  c #7B4E23",
"-  c #7C5025",
";  c #7B5228",
":  c #604A33",
">  c #7F776E",
",  c #AC721D",
"<  c #B1771A",
"1  c #B4791C",
"2  c #B87D1F",
"3  c #8D5524",
"4  c #8F5827",
"5  c #8A5C2C",
"6  c #935B26",
"7  c #955D2A",
"8  c #995F2A",
"9  c #8B5F31",
"0  c #9A602C",
"q  c #84613C",
"w  c #9A6734",
"e  c #90673B",
"r  c #A16720",
"t  c #A46A24",
"y  c #A96E27",
"u  c #A16728",
"i  c #A4692D",
"p  c #A96E2E",
"a  c #AB7220",
"s  c #AE7329",
"d  c #B17725",
"f  c #B87C26",
"g  c #B1762A",
"h  c #A26730",
"j  c #A46B32",
"k  c #AB6E34",
"l  c #A46F3B",
"z  c #B1693B",
"x  c #AD7135",
"c  c #A5713D",
"v  c #AD7539",
"b  c #AC783E",
"n  c #B17437",
"m  c #B17B37",
"M  c #B37639",
"N  c #B8763F",
"B  c #B6783A",
"V  c #BB7D3D",
"C  c #C1663E",
"Z  c #A57240",
"A  c #AB7744",
"S  c #AE7842",
"D  c #F3564F",
"F  c #F85850",
"G  c #C47A41",
"H  c #C5774C",
"J  c #D57445",
"K  c #E6694B",
"L  c #FF6562",
"P  c #FF6966",
"I  c #E37665",
"U  c #FF7E77",
"Y  c #BC821B",
"T  c #BB832B",
"R  c #BC8531",
"E  c #BE803F",
"W  c #C28715",
"Q  c #C68B15",
"!  c #C2861F",
"~  c #C88D19",
"^  c #CC9114",
"/  c #D29614",
"(  c #D59912",
")  c #DA9E10",
"_  c #DEA10F",
"`  c #DCA010",
"'  c #E1A50E",
"]  c #E7AA0B",
"[  c #EBAE0B",
"{  c #EFB20B",
"}  c #FCBE07",
"|  c #F3B609",
" . c #F7B909",
".. c #FBBD08",
"X. c #E4A712",
"o. c #EDB21D",
"O. c #C58C25",
"+. c #D89E21",
"@. c #C1823F",
"#. c #C18C3F",
"$. c #A8E61D",
"%. c #FFC107",
"&. c #FDC009",
"*. c #FFC212",
"=. c #FFC31F",
"-. c #FDC120",
";. c #FDC22C",
":. c #FDC335",
">. c #FFEB3B",
",. c #BE8141",
"<. c #BE8B47",
"1. c #BE8C4A",
"2. c #BB8954",
"3. c #C68642",
"4. c #C88644",
"5. c #C98945",
"6. c #C98448",
"7. c #CD914E",
"8. c #C58E57",
"9. c #D68654",
"0. c #D7815B",
"q. c #DA8659",
"w. c #CE9351",
"e. c #C8945D",
"r. c #D09557",
"t. c #D49A5B",
"y. c #D89C5B",
"u. c #E1895F",
"i. c #D9A359",
"p. c #C69760",
"a. c #C79861",
"s. c #C99A64",
"d. c #E48060",
"f. c #F68976",
"g. c #FF857D",
"h. c #FB8A7B",
"j. c #DFA667",
"k. c #D3A56E",
"l. c #D6A971",
"z. c #DCAF77",
"x. c #DBAF79",
"c. c #DDB177",
"v. c #DCB179",
"b. c #E0A768",
"n. c #E2AB6D",
"m. c #E3B474",
"M. c #EAB77B",
"N. c #E4B97F",
"B. c #FAC666",
"V. c #F2C277",
"C. c #ACACAE",
"Z. c #E2B780",
"A. c #E6BC83",
"S. c #E9BE85",
"D. c #EAC086",
"F. c #ECC289",
"G. c #F6C783",
"H. c #F1C48A",
/* pixels */
"%.%.%.%.%.%.%.%.%.%.%.%.%.%.>.>.%.%.%.%.%.%.%.%.%.%.>.>.%.%.%.%.%.%.%.%.%.%.%.%.%.%.%.%.%.%.%.%.%.%.%.%.>.>.%.%.%.%.%.%.%.%.%.%.",
"%.%.%.%.%.%.%.%.%.%.%.%.%.%.>.>.%.%.%.%.%.%.%.%.%.%.>.>.%.%.%.%.%.%.%.%.%.%.%.%.%.%.%.%.%.%.%.%.%.%.%.%.>.>.%.%.%.%.%.%.%.%.%.%.",
"%.%.%.%.%.%.%.%.%.%.%.%.%.%.>.>.%.%.%.%.%.%.%.%.%.%.>.>.%.%.%.%.%.%.%.%.%.%.%.%.%.%.%.%.%.%.%.%.%.%.%.%.>.>.%.%.%.%.%.%.%.%.%.%.",
"%.%.%.%.%.%.%.%.%.%.%.%.%.%.>.>.%.%.%.%.%.%.%.%.%.%.>.>.%.%.%.%.%.%.%.%.%.%.%.%.%.%.%.%.%.%.%.%.%.%.%.%.>.>.%.%.%.%.%.%.%.%.%.%.",
"%.%.%.%.%.%.%.%.%.%.%.%.%.%.>.>.%.%.%.%.%.%.%.%.%.%.>.>.%.%.%.%.%.%.%.%.%.%.%.%.%.%.%.%.%.%.%.%.%.%.%.%.>.>.%.%.%.%.%.%.%.%.%.%.",
"%.%.%.%.%.%.%.%.%.%.%.%.%.%.>.>.>.>.>.>.>.>.>.>.>.>.>.>.%.%.%.%.%.%.%.%.%.%.%.%.%.%.%.%.%.%.%.%.%.%.%.%.>.>.%.%.%.%.%.%.%.%.%.%.",
"%.%.%.%.%.%.%.%.%.%.%.%.%.%.>.>.>.>.>.>.>.>.>.>.>.>.>.>.%.%.%.%.%.%.%.%.%.%.%.%.%.%.%.%.%.%.%.%.%.%.%.%.>.>.%.%.%.%.%.%.%.%.%.%.",
"%.%.%.%.%.%.%.%.%.%.%.%.%.%.>.>.%.%.%.%.%.%.%.%.%.%.>.>.%.%.%.%.%.%.%.%.%.%.%.%.%.%.%.%.%.%.%.%.%.%.%.%.>.>.%.%.%.%.%.%.%.%.%.%.",
"%.%.%.%.%.%.%.%.%.%.%.%.%.%.>.>.%.%.%.%.%.%.%.%.%.%.>.>.%.%.%.%.%.%.%.%.%.%.%.%.%.%.%.%.%.%.%.%.%.%.%.%.>.>.%.%.%.%.%.%.%.%.%.%.",
"%.%.%.%.%.%.%.%.%.%.%.%.%.%.>.>.%.%.%.%.%.%.%.%.%.%.>.>.%.%.%.%.%.%.%.%.%.%.%.%.%.%.%.%.%.%.%.%.%.%.%.%.>.>.%.%.%.%.%.%.%.%.%.%.",
"%.%.%.%.%.%.%.%.%.%.%.%.%.%.>.>.%.%.%.%.%.%.%.%.%.%.>.>.%.%.%.%.%.%.%.%.%.%.%.%.%.%.%.%.%.%.%.%.%.%.%.%.>.>.%.%.%.%.%.%.%.%.%.%.",
"%.%.%.%.%.%.%.%.%.%.%.%.%.%.>.>.%.%.%.%.%.%.%.%.%.%.>.>.%.%.%.%.%.%.%.%.%.%.%.%.%.%.%.%.%.%.%.%.%.%.%.%.>.>.%.%.%.%.%.%.%.%.%.%.",
">.>.>.>.>.>.>.>.>.>.>.>.>.>.>.>.%.%.%.%.%.%.%.%.%.%.>.>.%.%.%.%.%.%.%.%.%.%.%.%.%.%.%.%.%.%.%.%.%.%.%.%.>.>.>.>.>.>.>.>.>.>.>.>.",
">.>.>.>.>.>.>.>.>.>.>.>.>.>.>.>.%.%.%.%.%.%.%.%.%.%.>.>.%.%.%.%.%.%.%.%.%.%.%.%.%.%.%.%.%.%.%.%.%.%.%.%.>.>.>.>.>.>.>.>.>.>.>.>.",
"%.%.%.%.%.%.%.%.%.%.%.%.%.%.>.>.%.%.%.%.%.%.%.%.%.%.>.>.%.%.%.%.%.%.%.%.%.%.%.%.%.%.%.%.%.%.%.%.%.%.%.%.>.>.%.%.%.%.%.%.%.%.%.%.",
"%.%.%.%.%.%.%.%.%.%.%.%.%.%.>.>.%.%.%.%.%.%.%.%.%.%.>.>.%.%.%.%.%.%.%.%.%.%.%.%.%.%.%.%.%.%.%.%.%.%.%.%.>.>.%.%.%.%.%.%.%.%.%.%.",
"%.%.%.%.%.%.%.%.%.%.%.%.%.%.>.>.%.%.%.%.%.%.%.{ ( ( ` >.%.%.%.%.%.%.%.%.} ` ( ( { %.%.%.%.%.%.%.%.%.%.%.>.>.%.%.%.%.%.%.%.%.%.%.",
"%.%.%.%.%.%.%.%.%.%.%.%.%.%.>.>.%.%.%.%.%.%.{ , k M u ^ } %.%.%.%.%.%.} ^ u M k , { %.%.%.%.%.%.%.%.%.%.>.>.%.%.%.%.%.%.%.%.%.%.",
"%.%.%.%.%.%.%.%.%.%.%.%.%.%.>.>.%.%.%.%.%.{ , k 9.u.0.z ^  .( ^ ^ (  .^ z 0.u.9.k , { %.%.%.%.%.%.%.%.%.>.>.%.%.%.%.%.%.%.%.%.%.",
"%.%.%.%.%.%.%.%.%.%.%.%.%.%.>.>.%.%.%.%...1 k q.h.g.U I k d p B B p d k I U g.h.q.k 1 ..%.%.%.%.%.%.%.%.>.>.%.%.%.%.%.%.%.%.%.%.",
"%.%.%.%.%.%.%.%.%.%.%.%.%.%.>.>.%.%.%.%. .d 6.f.g.L D C E 3.3.3.3.3.3.E C D L g.f.6.d  .%.%.%.%.%.%.%.%.>.>.%.%.%.%.%.%.%.%.%.%.",
"%.%.%.%.%.%.%.%.%.%.%.%.%.%.>.>.%.%.%.%. .d 6.f.P F J @.3.3.3.3.3.3.3.3.@.J F P f.6.d  .%.%.%.%.%.%.%.%.>.>.%.%.%.%.%.%.%.%.%.%.",
"%.%.%.%.%.%.%.%.%.%.%.%.%.%.>.>.%.%.%.%. .a N f.P K 3.3.3.3.3.3.3.3.3.3.3.3.K P f.N a  .%.%.%.%.%.%.%.%.>.>.%.%.%.%.%.%.%.%.%.%.",
"%.%.%.%.%.%.%.%.%.%.%.%.%.%.>.>.%.%.%.%.%.' t H d.G 3.3.3.3.3.3.3.3.3.3.3.3.G d.H t ' %.%.%.%.%.%.%.%.%.>.>.%.%.%.%.%.%.%.%.%.%.",
"%.%.%.%.%.%.%.%.%.%.%.%.%.%.>.>.%.%.%.%.%.%.' a p V w % : e 3.3.3.3.e : % w V p a ' %.%.%.%.%.%.%.%.%.%.>.>.%.%.%.%.%.%.%.%.%.%.",
"%.%.%.%.%.%.%.%.%.%.%.%.%.%.>.>.%.%.%.%.%.%.%.| 2 V # . C.> j 4.4.j > C.. # V 2 | %.%.%.%.%.%.%.%.%.%.%.>.>.%.%.%.%.%.%.%.%.%.%.",
"%.%.%.%.%.%.%.%.%.%.%.%.%.%.>.>.%.%.%.%.%.%.%.%.Y V $ X @ + j 5.5.j + @ X $ V Y %.%.%.%.%.%.%.%.%.%.%.%.>.>.%.%.%.%.%.%.%.%.%.%.",
"%.%.%.%.%.%.%.%.%.%.%.%.%.%.>.>.%.%.%.%.%.%.%.%.Y V q *   O v 9 9 v O   * q V Y %.%.%.%.%.%.%.%.%.%.%.%.>.>.%.%.%.%.%.%.%.%.%.%.",
"%.%.%.%.%.%.%.%.%.%.%.%.%.%.>.>.%.%.%.%.%.%.%.%.~ V ,.5 = j w + + w j = 5 ,.V ~ %.%.%.%.%.%.%.%.%.%.%.%.>.>.%.%.%.%.%.%.%.%.%.%.",
"%.%.%.%.%.%.%.%.%.%.%.%.%.%.>.>.%.%.%.%.%.%.%.%.{ y V 3.3.E j o o j E 3.4.V y { %.%.%.%.%.%.%.%.%.%.%.%.>.>.%.%.%.%.%.%.%.%.%.%.",
"%.%.%.%.%.%.%.%.%.%.%.%.%.%.>.>.%.%.%.%.%.%.%.%.%.Q k 3.E - ; & & ; - E 3.k Q >.>.>.>.>.>.>.>.>.>.>.>.>.>.>.%.%.%.%.%.%.%.%.%.%.",
"%.%.%.%.%.%.%.%.%.%.%.%.%.%.>.>.%.%.%.%.%.%.%.%.%.[ , x 3.B 5 v v 5 B 3.x , >.>.>.>.>.>.>.>.>.>.>.>.>.>.>.>.%.%.%.%.%.%.%.%.%.%.",
"%.%.%.%.%.%.%.%.%.%.%.%.%.%.>.>.%.%.%.%.%.%.%.%.%.%.[ a x 3.5.3.3.5.3.x a [ %.%.%.%.%.%.%.%.%.%.%.%.%.%.>.>.%.%.%.%.%.%.%.%.%.%.",
"%.%.%.%.%.%.%.%.%.%.%.%.%.%.>.>.%.%.%.%.%.%.%.%.| [ W r 0 k @.3.3.@.k 0 r W [ | %.%.%.%.%.%.%.%.%.%.%.%.>.>.%.%.%.%.%.%.%.%.%.%.",
"%.%.%.%.%.%.%.%.%.%.%.%.%.%.>.>.%.%.%.%.%..._ ^ , u j M 3.@.3.3.3.3.@.3.M j u , ^ _ ..%.%.%.%.%.%.%.%.%.>.>.%.%.%.%.%.%.%.%.%.%.",
"%.%.%.%.%.%.%.%.%.%.%.%.%.%.>.>.%.%.%.[ Q , t h B V 3.3.3.3.7.w.w.7.3.3.3.3.V B h t , Q [ %.%.%.%.%.%.%.>.>.%.%.%.%.%.%.%.%.%.%.",
"%.%.%.%.%.%.%.%.%.%.%.%.%.%.>.>.%.%.;.i.e.8.3.3.3.3.3.3.3.,.c.S.S.c.,.3.3.3.3.3.3.3.8.e.i.;.%.%.%.%.%.%.>.>.%.%.%.%.%.%.%.%.%.%.",
"%.%.%.%.%.%.%.%.%.%.%.%.%.%.>.>.>.>.V.F.H.H.j.5.3.3.3.3.n 2.S.D.D.S.2.n 3.3.3.3.5.j.H.H.F.V.o.%.%.%.%.%.>.>.%.%.%.%.%.%.%.%.%.%.",
"%.%.%.%.%.%.%.%.%.%.%.%.%.%.>.>.>.w.A.$.$.D.F.b.5.3.3.@.l l.D.D.D.D.l.l @.3.3.5.b.F.D.D.D.A.w.X.%.%.%.%.>.>.%.%.%.%.%.%.%.%.%.%.",
"%.%.%.%.%.%.%.%.%.%.%.%.%.%.>.>.#.Z.$.$.$.$.D.H.y.3.3.x c A.D.D.D.D.A.c x 3.3.y.H.D.D.D.D.D.Z.#.| %.%.%.>.>.%.%.%.%.%.%.%.%.%.%.",
"%.%.%.%.%.%.%.%.%.%.%.%.%.%.>.>.<.D.$.$.$.$.D.S.r.@.V 8 A A.D.D.D.D.A.A 8 V @.r.S.D.D.D.D.D.D.<.{ %.%.%.>.>.%.%.%.%.%.%.%.%.%.%.",
"%.%.%.%.%.%.%.%.%.%.%.%.%.%.>.>.m v.$.$.$.$.A.2.0 x M 7 k.D.D.D.D.D.D.k.7 M x 0 2.A.D.D.D.D.v.m | %.%.%.>.>.%.%.%.%.%.%.%.%.%.%.",
"%.%.%.%.%.%.%.%.%.%.%.%.%.%.>.>.^ b v.$.$.A.2.7 6 V V 7 l.D.D.D.D.D.D.l.7 V V 6 7 2.A.D.D.v.b ^ } %.%.%.>.>.%.%.%.%.%.%.%.%.%.%.",
"%.%.%.%.%.%.%.%.%.%.%.%.%.%.>.>.} ^ b x.Z.2.p f j 3.V 7 l.D.D.D.D.D.D.l.7 V 3.j f p 2.D.x.b ^ } %.%.%.%.>.>.%.%.%.%.%.%.%.%.%.%.",
">.>.>.>.>.>.>.>.>.>.>.>.>.>.>.>.%.} ^ T R Y X., M 5.V 7 s.D.D.D.D.D.D.s.7 V 5.M , X.Y R T ^ } %.%.%.%.%.>.>.>.>.>.>.>.>.>.>.>.>.",
">.>.>.>.>.>.>.>.>.>.>.>.>.>.>.>.%.%.%.....} | y V 3.V 6 l N.D.D.D.D.N.l 6 V 3.V y | } ....%.%.%.%.%.%.%.>.>.>.>.>.>.>.>.>.>.>.>.",
"%.%.%.%.%.%.%.%.%.%.%.%.%.%.>.>.%.%.%.%.%.%.| g 3.3.3.j 4 a.F.D.D.F.a.4 j 3.3.3.g | %.%.%.%.%.%.%.%.%.%.>.>.%.%.%.%.%.%.%.%.%.%.",
"%.%.%.%.%.%.%.%.%.%.%.%.%.%.>.>.%.%.%.%.%.%.| s 3.3.3.V 6 l z.F.F.z.l 6 V 3.3.3.s | %.%.%.%.%.%.%.%.%.%.>.>.%.%.%.%.%.%.%.%.%.%.",
"%.%.%.%.%.%.%.%.%.%.%.%.%.%.>.>.%.%.%.%.%.%.| r B 3.3.3.j 3 c p.p.c 3 j 3.3.3.B r | %.%.%.%.%.%.%.%.%.%.>.>.%.%.%.%.%.%.%.%.%.%.",
"%.%.%.%.%.%.%.%.%.%.%.%.%.%.>.>.%.%.%.%.*.=.-.O.n 3.3.3.3.j 3 3 3 3 j 3.3.3.3.n O.-.=.*.%.%.%.%.%.%.%.%.>.>.%.%.%.%.%.%.%.%.%.%.",
"%.%.%.%.%.%.%.%.%.%.%.%.%.%.>.>.%.%.&.:.B.G.G.m.t.5.3.3.3.3.k j j k 3.3.3.3.5.t.m.G.G.B.:.&.%.%.%.%.%.%.>.>.%.%.%.%.%.%.%.%.%.%.",
"%.%.%.%.%.%.%.%.%.%.%.%.%.%.>.>.%.} +.m.F.$.$.D.H.n.5.3.3.3.3.3.3.3.3.3.3.5.n.H.D.D.D.F.m.+.} %.%.%.%.%.>.>.%.%.%.%.%.%.%.%.%.%.",
"%.%.%.%.%.%.%.%.%.%.%.%.%.%.>.>.%.] 1.S.$.$.$.$.D.H.y.3.3.3.3.3.3.3.3.3.3.y.H.D.D.D.D.D.S.1.] %.%.%.%.%.>.>.%.%.%.%.%.%.%.%.%.%.",
"%.%.%.%.%.%.%.%.%.%.%.%.%.%.>.>.%.Y e.D.$.$.$.$.D.F.M.5.3.V B B B B V 3.5.M.F.D.D.D.D.D.D.e.Y %.%.%.%.%.>.>.%.%.%.%.%.%.%.%.%.%.",
"%.%.%.%.%.%.%.%.%.%.%.%.%.%.>.>.} T x.D.$.$.$.$.D.F.M.4.k ! / / / / ! k 4.M.F.D.D.D.D.D.D.x.T } %.%.%.%.>.>.%.%.%.%.%.%.%.%.%.%.",
"%.%.%.%.%.%.%.%.%.%.%.%.%.%.>.>.} 1 2.D.$.$.$.$.D.c.S i Y  .%.%.%.%. .Y i S c.D.D.D.D.D.D.2.1 } %.%.%.%.>.>.%.%.%.%.%.%.%.%.%.%.",
"%.%.%.%.%.%.%.%.%.%.%.%.%.%.>.>.%.( j k.D.$.$.D.N.2.3 Y  .%.%.%.%.%.%. .Y 3 2.N.D.D.D.D.k.j ( %.%.%.%.%.>.>.%.%.%.%.%.%.%.%.%.%.",
"%.%.%.%.%.%.%.%.%.%.%.%.%.%.>.>.%. ., w k.S.Z.s.c 7 Y >.%.%.%.%.%.%.%.%. .Y 7 c s.Z.S.k.w ,  .%.%.%.%.%.>.>.%.%.%.%.%.%.%.%.%.%.",
"%.%.%.%.%.%.%.%.%.%.%.%.%.%.>.>.%.%.{ < j Z l 7 , ) >.>.%.%.%.%.%.%.%.%.%. .) , 7 l Z j < { %.%.%.%.%.%.>.>.%.%.%.%.%.%.%.%.%.%.",
"%.%.%.%.%.%.%.%.%.%.%.%.%.%.>.>.%.%.%..._ W W (  .%.>.>.%.%.%.%.%.%.%.%.%.%.%. .( W W _ ..%.%.%.%.%.%.%.>.>.%.%.%.%.%.%.%.%.%.%.",
"%.%.%.%.%.%.%.%.%.%.%.%.%.%.>.>.%.%.%.%.%.%.%.%.%.%.>.>.%.%.%.%.%.%.%.%.%.%.%.%.%.%.%.%.%.%.%.%.%.%.%.%.>.>.%.%.%.%.%.%.%.%.%.%.",
"%.%.%.%.%.%.%.%.%.%.%.%.%.%.>.>.%.%.%.%.%.%.%.%.%.%.>.>.%.%.%.%.%.%.%.%.%.%.%.%.%.%.%.%.%.%.%.%.%.%.%.%.>.>.%.%.%.%.%.%.%.%.%.%.",
"%.%.%.%.%.%.%.%.%.%.%.%.%.%.>.>.%.%.%.%.%.%.%.%.%.%.>.>.>.>.>.>.>.>.>.>.>.>.>.>.>.>.>.>.>.>.>.>.>.>.>.>.>.>.%.%.%.%.%.%.%.%.%.%.",
"%.%.%.%.%.%.%.%.%.%.%.%.%.%.>.>.%.%.%.%.%.%.%.%.%.%.>.>.>.>.>.>.>.>.>.>.>.>.>.>.>.>.>.>.>.>.>.>.>.>.>.>.>.>.%.%.%.%.%.%.%.%.%.%."
};
