/* XPM */
static char *_062d9fc884d4cb1afe1ca9598f5fb8b8pkBJFr57dvRbMIx[] = {
/* columns rows colors chars-per-pixel */
"64 64 157 2 ",
"   c black",
".  c #050608",
"X  c #18191A",
"o  c #21150B",
"O  c #331F0D",
"+  c #302B26",
"@  c gray22",
"#  c #402B15",
"$  c #402F1D",
"%  c #4C341B",
"&  c #563A1C",
"*  c #403C38",
"=  c #7B4E23",
"-  c #7C5025",
";  c #7B5228",
":  c #604A33",
">  c #7F776E",
",  c #AC721D",
"<  c #B1771A",
"1  c #B4791C",
"2  c #B87D1F",
"3  c #8D5524",
"4  c #8F5827",
"5  c #8A5C2C",
"6  c #935B26",
"7  c #955D2A",
"8  c #995F2A",
"9  c #8B5F31",
"0  c #9A602C",
"q  c #84613C",
"w  c #9A6734",
"e  c #90673B",
"r  c #A16720",
"t  c #A46A24",
"y  c #A96E27",
"u  c #A16728",
"i  c #A4692D",
"p  c #A96E2E",
"a  c #AB7220",
"s  c #AE7329",
"d  c #B17725",
"f  c #B87C26",
"g  c #B1762A",
"h  c #A26730",
"j  c #A46B32",
"k  c #AB6E34",
"l  c #A46F3B",
"z  c #B1693B",
"x  c #AD7135",
"c  c #A5713D",
"v  c #AD7539",
"b  c #AC783E",
"n  c #B17437",
"m  c #B17B37",
"M  c #B37639",
"N  c #B8763F",
"B  c #B6783A",
"V  c #BB7D3D",
"C  c #C1663E",
"Z  c #A57240",
"A  c #AB7744",
"S  c #AE7842",
"D  c #F3564F",
"F  c #F85850",
"G  c #C47A41",
"H  c #C5774C",
"J  c #D57445",
"K  c #E6694B",
"L  c #FF6562",
"P  c #FF6966",
"I  c #E37665",
"U  c #FF7E77",
"Y  c #BC821B",
"T  c #BB832B",
"R  c #BC8531",
"E  c #BE803F",
"W  c #C28715",
"Q  c #C68B15",
"!  c #C2861F",
"~  c #C88D19",
"^  c #CC9114",
"/  c #D29614",
"(  c #D59912",
")  c #DA9E10",
"_  c #DEA10F",
"`  c #DCA010",
"'  c #E1A50E",
"]  c #E7AA0B",
"[  c #EBAE0B",
"{  c #EFB20B",
"}  c #FCBE07",
"|  c #F3B609",
" . c #F7B909",
".. c #FBBD08",
"X. c #E4A712",
"o. c #EDB21D",
"O. c #C58C25",
"+. c #D89E21",
"@. c #C1823F",
"#. c #C18C3F",
"$. c #FFC107",
"%. c #FDC009",
"&. c #FFC212",
"*. c #FFC31F",
"=. c #FDC120",
"-. c #FDC22C",
";. c #FDC335",
":. c #FFEB3B",
">. c #BE8141",
",. c #BE8B47",
"<. c #BE8C4A",
"1. c #BB8954",
"2. c #C68642",
"3. c #C88644",
"4. c #C98945",
"5. c #C98448",
"6. c #CD914E",
"7. c #C58E57",
"8. c #D68654",
"9. c #D7815B",
"0. c #DA8659",
"q. c #CE9351",
"w. c #C8945D",
"e. c #D09557",
"r. c #D49A5B",
"t. c #D89C5B",
"y. c #E1895F",
"u. c #D9A359",
"i. c #C69760",
"p. c #C79861",
"a. c #C99A64",
"s. c #E48060",
"d. c #F68976",
"f. c #FF857D",
"g. c #FB8A7B",
"h. c #DFA667",
"j. c #D3A56E",
"k. c #D6A971",
"l. c #DCAF77",
"z. c #DBAF79",
"x. c #DDB177",
"c. c #DCB179",
"v. c #E0A768",
"b. c #E2AB6D",
"n. c #E3B474",
"m. c #EAB77B",
"M. c #E4B97F",
"N. c #FAC666",
"B. c #F2C277",
"V. c #ACACAE",
"C. c #E2B780",
"Z. c #E6BC83",
"A. c #E9BE85",
"S. c #EAC086",
"D. c #ECC289",
"F. c #F6C783",
"G. c #F1C48A",
/* pixels */
"$.$.$.$.$.$.$.$.$.$.$.$.$.$.:.:.$.$.$.$.$.$.$.$.$.$.:.:.$.$.$.$.$.$.$.$.$.$.$.$.$.$.$.$.$.$.$.$.$.$.$.$.:.:.$.$.$.$.$.$.$.$.$.$.",
"$.$.$.$.$.$.$.$.$.$.$.$.$.$.:.:.$.$.$.$.$.$.$.$.$.$.:.:.$.$.$.$.$.$.$.$.$.$.$.$.$.$.$.$.$.$.$.$.$.$.$.$.:.:.$.$.$.$.$.$.$.$.$.$.",
"$.$.$.$.$.$.$.$.$.$.$.$.$.$.:.:.$.$.$.$.$.$.$.$.$.$.:.:.$.$.$.$.$.$.$.$.$.$.$.$.$.$.$.$.$.$.$.$.$.$.$.$.:.:.$.$.$.$.$.$.$.$.$.$.",
"$.$.$.$.$.$.$.$.$.$.$.$.$.$.:.:.$.$.$.$.$.$.$.$.$.$.:.:.$.$.$.$.$.$.$.$.$.$.$.$.$.$.$.$.$.$.$.$.$.$.$.$.:.:.$.$.$.$.$.$.$.$.$.$.",
"$.$.$.$.$.$.$.$.$.$.$.$.$.$.:.:.$.$.$.$.$.$.$.$.$.$.:.:.$.$.$.$.$.$.$.$.$.$.$.$.$.$.$.$.$.$.$.$.$.$.$.$.:.:.$.$.$.$.$.$.$.$.$.$.",
"$.$.$.$.$.$.$.$.$.$.$.$.$.$.:.:.:.:.:.:.:.:.:.:.:.:.:.:.$.$.$.$.$.$.$.$.$.$.$.$.$.$.$.$.$.$.$.$.$.$.$.$.:.:.$.$.$.$.$.$.$.$.$.$.",
"$.$.$.$.$.$.$.$.$.$.$.$.$.$.:.:.:.:.:.:.:.:.:.:.:.:.:.:.$.$.$.$.$.$.$.$.$.$.$.$.$.$.$.$.$.$.$.$.$.$.$.$.:.:.$.$.$.$.$.$.$.$.$.$.",
"$.$.$.$.$.$.$.$.$.$.$.$.$.$.:.:.$.$.$.$.$.$.$.$.$.$.:.:.$.$.$.$.$.$.$.$.$.$.$.$.$.$.$.$.$.$.$.$.$.$.$.$.:.:.$.$.$.$.$.$.$.$.$.$.",
"$.$.$.$.$.$.$.$.$.$.$.$.$.$.:.:.$.$.$.$.$.$.$.$.$.$.:.:.$.$.$.$.$.$.$.$.$.$.$.$.$.$.$.$.$.$.$.$.$.$.$.$.:.:.$.$.$.$.$.$.$.$.$.$.",
"$.$.$.$.$.$.$.$.$.$.$.$.$.$.:.:.$.$.$.$.$.$.$.$.$.$.:.:.$.$.$.$.$.$.$.$.$.$.$.$.$.$.$.$.$.$.$.$.$.$.$.$.:.:.$.$.$.$.$.$.$.$.$.$.",
"$.$.$.$.$.$.$.$.$.$.$.$.$.$.:.:.$.$.$.$.$.$.$.$.$.$.:.:.$.$.$.$.$.$.$.$.$.$.$.$.$.$.$.$.$.$.$.$.$.$.$.$.:.:.$.$.$.$.$.$.$.$.$.$.",
"$.$.$.$.$.$.$.$.$.$.$.$.$.$.:.:.$.$.$.$.$.$.$.$.$.$.:.:.$.$.$.$.$.$.$.$.$.$.$.$.$.$.$.$.$.$.$.$.$.$.$.$.:.:.$.$.$.$.$.$.$.$.$.$.",
":.:.:.:.:.:.:.:.:.:.:.:.:.:.:.:.$.$.$.$.$.$.$.$.$.$.:.:.$.$.$.$.$.$.$.$.$.$.$.$.$.$.$.$.$.$.$.$.$.$.$.$.:.:.:.:.:.:.:.:.:.:.:.:.",
":.:.:.:.:.:.:.:.:.:.:.:.:.:.:.:.$.$.$.$.$.$.$.$.$.$.:.:.$.$.$.$.$.$.$.$.$.$.$.$.$.$.$.$.$.$.$.$.$.$.$.$.:.:.:.:.:.:.:.:.:.:.:.:.",
"$.$.$.$.$.$.$.$.$.$.$.$.$.$.:.:.$.$.$.$.$.$.$.$.$.$.:.:.$.$.$.$.$.$.$.$.$.$.$.$.$.$.$.$.$.$.$.$.$.$.$.$.:.:.$.$.$.$.$.$.$.$.$.$.",
"$.$.$.$.$.$.$.$.$.$.$.$.$.$.:.:.$.$.$.$.$.$.$.$.$.$.:.:.$.$.$.$.$.$.$.$.$.$.$.$.$.$.$.$.$.$.$.$.$.$.$.$.:.:.$.$.$.$.$.$.$.$.$.$.",
"$.$.$.$.$.$.$.$.$.$.$.$.$.$.:.:.$.$.$.$.$.$.$.{ ( ( ` :.$.$.$.$.$.$.$.$.} ` ( ( { $.$.$.$.$.$.$.$.$.$.$.:.:.$.$.$.$.$.$.$.$.$.$.",
"$.$.$.$.$.$.$.$.$.$.$.$.$.$.:.:.$.$.$.$.$.$.{ , k M u ^ } $.$.$.$.$.$.} ^ u M k , { $.$.$.$.$.$.$.$.$.$.:.:.$.$.$.$.$.$.$.$.$.$.",
"$.$.$.$.$.$.$.$.$.$.$.$.$.$.:.:.$.$.$.$.$.{ , k 8.y.9.z ^  .( ^ ^ (  .^ z 9.y.8.k , { $.$.$.$.$.$.$.$.$.:.:.$.$.$.$.$.$.$.$.$.$.",
"$.$.$.$.$.$.$.$.$.$.$.$.$.$.:.:.$.$.$.$...1 k 0.g.f.U I k d p B B p d k I U f.g.0.k 1 ..$.$.$.$.$.$.$.$.:.:.$.$.$.$.$.$.$.$.$.$.",
"$.$.$.$.$.$.$.$.$.$.$.$.$.$.:.:.$.$.$.$. .d 5.d.f.L D C E 2.2.2.2.2.2.E C D L f.d.5.d  .$.$.$.$.$.$.$.$.:.:.$.$.$.$.$.$.$.$.$.$.",
"$.$.$.$.$.$.$.$.$.$.$.$.$.$.:.:.$.$.$.$. .d 5.d.P F J @.2.2.2.2.2.2.2.2.@.J F P d.5.d  .$.$.$.$.$.$.$.$.:.:.$.$.$.$.$.$.$.$.$.$.",
"$.$.$.$.$.$.$.$.$.$.$.$.$.$.:.:.$.$.$.$. .a N d.P K 2.2.2.2.2.2.2.2.2.2.2.2.K P d.N a  .$.$.$.$.$.$.$.$.:.:.$.$.$.$.$.$.$.$.$.$.",
"$.$.$.$.$.$.$.$.$.$.$.$.$.$.:.:.$.$.$.$.$.' t H s.G 2.2.2.2.2.2.2.2.2.2.2.2.G s.H t ' $.$.$.$.$.$.$.$.$.:.:.$.$.$.$.$.$.$.$.$.$.",
"$.$.$.$.$.$.$.$.$.$.$.$.$.$.:.:.$.$.$.$.$.$.' a p V w % : e 2.2.2.2.e : % w V p a ' $.$.$.$.$.$.$.$.$.$.:.:.$.$.$.$.$.$.$.$.$.$.",
"$.$.$.$.$.$.$.$.$.$.$.$.$.$.:.:.$.$.$.$.$.$.$.| 2 V # . V.> j 3.3.j > V.. # V 2 | $.$.$.$.$.$.$.$.$.$.$.:.:.$.$.$.$.$.$.$.$.$.$.",
"$.$.$.$.$.$.$.$.$.$.$.$.$.$.:.:.$.$.$.$.$.$.$.$.Y V $ X @ + j 4.4.j + @ X $ V Y $.$.$.$.$.$.$.$.$.$.$.$.:.:.$.$.$.$.$.$.$.$.$.$.",
"$.$.$.$.$.$.$.$.$.$.$.$.$.$.:.:.$.$.$.$.$.$.$.$.Y V q *   O v 9 9 v O   * q V Y $.$.$.$.$.$.$.$.$.$.$.$.:.:.$.$.$.$.$.$.$.$.$.$.",
"$.$.$.$.$.$.$.$.$.$.$.$.$.$.:.:.$.$.$.$.$.$.$.$.~ V >.5 = j w + + w j = 5 >.V ~ $.$.$.$.$.$.$.$.$.$.$.$.:.:.$.$.$.$.$.$.$.$.$.$.",
"$.$.$.$.$.$.$.$.$.$.$.$.$.$.:.:.$.$.$.$.$.$.$.$.{ y V 2.2.E j o o j E 2.3.V y { $.$.$.$.$.$.$.$.$.$.$.$.:.:.$.$.$.$.$.$.$.$.$.$.",
"$.$.$.$.$.$.$.$.$.$.$.$.$.$.:.:.$.$.$.$.$.$.$.$.$.Q k 2.E - ; & & ; - E 2.k Q :.:.:.:.:.:.:.:.:.:.:.:.:.:.:.$.$.$.$.$.$.$.$.$.$.",
"$.$.$.$.$.$.$.$.$.$.$.$.$.$.:.:.$.$.$.$.$.$.$.$.$.[ , x 2.B 5 v v 5 B 2.x , :.:.:.:.:.:.:.:.:.:.:.:.:.:.:.:.$.$.$.$.$.$.$.$.$.$.",
"$.$.$.$.$.$.$.$.$.$.$.$.$.$.:.:.$.$.$.$.$.$.$.$.$.$.[ a x 2.4.2.2.4.2.x a [ $.$.$.$.$.$.$.$.$.$.$.$.$.$.:.:.$.$.$.$.$.$.$.$.$.$.",
"$.$.$.$.$.$.$.$.$.$.$.$.$.$.:.:.$.$.$.$.$.$.$.$.| [ W r 0 k @.2.2.@.k 0 r W [ | $.$.$.$.$.$.$.$.$.$.$.$.:.:.$.$.$.$.$.$.$.$.$.$.",
"$.$.$.$.$.$.$.$.$.$.$.$.$.$.:.:.$.$.$.$.$..._ ^ , u j M 2.@.2.2.2.2.@.2.M j u , ^ _ ..$.$.$.$.$.$.$.$.$.:.:.$.$.$.$.$.$.$.$.$.$.",
"$.$.$.$.$.$.$.$.$.$.$.$.$.$.:.:.$.$.$.[ Q , t h B V 2.2.2.2.6.q.q.6.2.2.2.2.V B h t , Q [ $.$.$.$.$.$.$.:.:.$.$.$.$.$.$.$.$.$.$.",
"$.$.$.$.$.$.$.$.$.$.$.$.$.$.:.:.$.$.-.u.w.7.2.2.2.2.2.2.2.>.x.A.A.x.>.2.2.2.2.2.2.2.7.w.u.-.$.$.$.$.$.$.:.:.$.$.$.$.$.$.$.$.$.$.",
"$.$.$.$.$.$.$.$.$.$.$.$.$.$.:.:.:.:.B.D.G.G.h.4.2.2.2.2.n 1.A.S.S.A.1.n 2.2.2.2.4.h.G.G.D.B.o.$.$.$.$.$.:.:.$.$.$.$.$.$.$.$.$.$.",
"$.$.$.$.$.$.$.$.$.$.$.$.$.$.:.:.:.q.Z.S.S.S.D.v.4.2.2.@.l k.S.S.S.S.k.l @.2.2.4.v.D.S.S.S.Z.q.X.$.$.$.$.:.:.$.$.$.$.$.$.$.$.$.$.",
"$.$.$.$.$.$.$.$.$.$.$.$.$.$.:.:.#.C.S.S.S.S.S.G.t.2.2.x c Z.S.S.S.S.Z.c x 2.2.t.G.S.S.S.S.S.C.#.| $.$.$.:.:.$.$.$.$.$.$.$.$.$.$.",
"$.$.$.$.$.$.$.$.$.$.$.$.$.$.:.:.,.S.S.S.S.S.S.A.e.@.V 8 A Z.S.S.S.S.Z.A 8 V @.e.A.S.S.S.S.S.S.,.{ $.$.$.:.:.$.$.$.$.$.$.$.$.$.$.",
"$.$.$.$.$.$.$.$.$.$.$.$.$.$.:.:.m c.S.S.S.S.Z.1.0 x M 7 j.S.S.S.S.S.S.j.7 M x 0 1.Z.S.S.S.S.c.m | $.$.$.:.:.$.$.$.$.$.$.$.$.$.$.",
"$.$.$.$.$.$.$.$.$.$.$.$.$.$.:.:.^ b c.S.S.Z.1.7 6 V V 7 k.S.S.S.S.S.S.k.7 V V 6 7 1.Z.S.S.c.b ^ } $.$.$.:.:.$.$.$.$.$.$.$.$.$.$.",
"$.$.$.$.$.$.$.$.$.$.$.$.$.$.:.:.} ^ b z.C.1.p f j 2.V 7 k.S.S.S.S.S.S.k.7 V 2.j f p 1.C.z.b ^ } $.$.$.$.:.:.$.$.$.$.$.$.$.$.$.$.",
":.:.:.:.:.:.:.:.:.:.:.:.:.:.:.:.$.} ^ T R Y X., M 4.V 7 a.S.S.S.S.S.S.a.7 V 4.M , X.Y R T ^ } $.$.$.$.$.:.:.:.:.:.:.:.:.:.:.:.:.",
":.:.:.:.:.:.:.:.:.:.:.:.:.:.:.:.$.$.$.....} | y V 2.V 6 l M.S.S.S.S.M.l 6 V 2.V y | } ....$.$.$.$.$.$.$.:.:.:.:.:.:.:.:.:.:.:.:.",
"$.$.$.$.$.$.$.$.$.$.$.$.$.$.:.:.$.$.$.$.$.$.| g 2.2.2.j 4 p.D.S.S.D.p.4 j 2.2.2.g | $.$.$.$.$.$.$.$.$.$.:.:.$.$.$.$.$.$.$.$.$.$.",
"$.$.$.$.$.$.$.$.$.$.$.$.$.$.:.:.$.$.$.$.$.$.| s 2.2.2.V 6 l l.D.D.l.l 6 V 2.2.2.s | $.$.$.$.$.$.$.$.$.$.:.:.$.$.$.$.$.$.$.$.$.$.",
"$.$.$.$.$.$.$.$.$.$.$.$.$.$.:.:.$.$.$.$.$.$.| r B 2.2.2.j 3 c i.i.c 3 j 2.2.2.B r | $.$.$.$.$.$.$.$.$.$.:.:.$.$.$.$.$.$.$.$.$.$.",
"$.$.$.$.$.$.$.$.$.$.$.$.$.$.:.:.$.$.$.$.&.*.=.O.n 2.2.2.2.j 3 3 3 3 j 2.2.2.2.n O.=.*.&.$.$.$.$.$.$.$.$.:.:.$.$.$.$.$.$.$.$.$.$.",
"$.$.$.$.$.$.$.$.$.$.$.$.$.$.:.:.$.$.%.;.N.F.F.n.r.4.2.2.2.2.k j j k 2.2.2.2.4.r.n.F.F.N.;.%.$.$.$.$.$.$.:.:.$.$.$.$.$.$.$.$.$.$.",
"$.$.$.$.$.$.$.$.$.$.$.$.$.$.:.:.$.} +.n.D.S.S.D.G.b.4.2.2.2.2.2.2.2.2.2.2.4.b.G.D.S.S.D.n.+.} $.$.$.$.$.:.:.$.$.$.$.$.$.$.$.$.$.",
"$.$.$.$.$.$.$.$.$.$.$.$.$.$.:.:.$.] <.A.S.S.S.S.S.G.t.2.2.2.2.2.2.2.2.2.2.t.G.S.S.S.S.S.A.<.] $.$.$.$.$.:.:.$.$.$.$.$.$.$.$.$.$.",
"$.$.$.$.$.$.$.$.$.$.$.$.$.$.:.:.$.Y w.S.S.S.S.S.S.D.m.4.2.V B B B B V 2.4.m.D.S.S.S.S.S.S.w.Y $.$.$.$.$.:.:.$.$.$.$.$.$.$.$.$.$.",
"$.$.$.$.$.$.$.$.$.$.$.$.$.$.:.:.} T z.S.S.S.S.S.S.D.m.3.k ! / / / / ! k 3.m.D.S.S.S.S.S.S.z.T } $.$.$.$.:.:.$.$.$.$.$.$.$.$.$.$.",
"$.$.$.$.$.$.$.$.$.$.$.$.$.$.:.:.} 1 1.S.S.S.S.S.S.x.S i Y  .$.$.$.$. .Y i S x.S.S.S.S.S.S.1.1 } $.$.$.$.:.:.$.$.$.$.$.$.$.$.$.$.",
"$.$.$.$.$.$.$.$.$.$.$.$.$.$.:.:.$.( j j.S.S.S.S.M.1.3 Y  .$.$.$.$.$.$. .Y 3 1.M.S.S.S.S.j.j ( $.$.$.$.$.:.:.$.$.$.$.$.$.$.$.$.$.",
"$.$.$.$.$.$.$.$.$.$.$.$.$.$.:.:.$. ., w j.A.C.a.c 7 Y :.$.$.$.$.$.$.$.$. .Y 7 c a.C.A.j.w ,  .$.$.$.$.$.:.:.$.$.$.$.$.$.$.$.$.$.",
"$.$.$.$.$.$.$.$.$.$.$.$.$.$.:.:.$.$.{ < j Z l 7 , ) :.:.$.$.$.$.$.$.$.$.$. .) , 7 l Z j < { $.$.$.$.$.$.:.:.$.$.$.$.$.$.$.$.$.$.",
"$.$.$.$.$.$.$.$.$.$.$.$.$.$.:.:.$.$.$..._ W W (  .$.:.:.$.$.$.$.$.$.$.$.$.$.$. .( W W _ ..$.$.$.$.$.$.$.:.:.$.$.$.$.$.$.$.$.$.$.",
"$.$.$.$.$.$.$.$.$.$.$.$.$.$.:.:.$.$.$.$.$.$.$.$.$.$.:.:.$.$.$.$.$.$.$.$.$.$.$.$.$.$.$.$.$.$.$.$.$.$.$.$.:.:.$.$.$.$.$.$.$.$.$.$.",
"$.$.$.$.$.$.$.$.$.$.$.$.$.$.:.:.$.$.$.$.$.$.$.$.$.$.:.:.$.$.$.$.$.$.$.$.$.$.$.$.$.$.$.$.$.$.$.$.$.$.$.$.:.:.$.$.$.$.$.$.$.$.$.$.",
"$.$.$.$.$.$.$.$.$.$.$.$.$.$.:.:.$.$.$.$.$.$.$.$.$.$.:.:.:.:.:.:.:.:.:.:.:.:.:.:.:.:.:.:.:.:.:.:.:.:.:.:.:.:.$.$.$.$.$.$.$.$.$.$.",
"$.$.$.$.$.$.$.$.$.$.$.$.$.$.:.:.$.$.$.$.$.$.$.$.$.$.:.:.:.:.:.:.:.:.:.:.:.:.:.:.:.:.:.:.:.:.:.:.:.:.:.:.:.:.$.$.$.$.$.$.$.$.$.$."
};
