/* XPM */
static char *_3ae394bf511406391f8af7f0385853cvvJte61SLn0a0qZN[] = {
/* columns rows colors chars-per-pixel */
"64 64 9 1 ",
"  c black",
". c #FF9800",
"X c #FFC107",
"o c #FFC20E",
"O c #F5D820",
"+ c #FFEB3B",
"@ c #F2CF96",
"# c #C6F7DF",
"$ c gray92",
/* pixels */
"oooooooooooooo++oooooooooo++oooooooooooooooooooooooo++oooooooooo",
"oooooooooooooo++ooXXooXXoo++oooooooooooooooooooooooo++oooooooooo",
"ooooooooooXXoo++ooXXooXXoo++ooXXooooXXooooXXooooXXoo++oXXXoooooo",
"ooooooooooXXoo++oooooooooo++ooXXooooXXooooXXooooXXoo++oXXXoooooo",
"ooooooooooXXoo++oooooooooo++ooooooooooooooo    ooooo++oXXXoooooo",
"ooooooooooXXoo++++++++++++++ooooooooooooooo    ooooo++oXXXoooooo",
"ooooooooooXXoo++++++++++++++ooooooooooooo  $$##  oo      XooooXX",
"oooooXooooXXoo++oooooooooo++ooooooooooooo  $$##  Xo      XooooXX",
"ooooXXooooXXoo++oXXXXXXXXo++ooXXooooooo  $$$$$$##  ##$$$$  oooXX",
"ooooXXooooXXoo++oXXXXXXXXo++ooXXooooooo  $$$$$$##  ##$$$$  oooXX",
"oooooooooooooo++oXXXXXXXXo++ooooooo  oo  ##$$$$##  $$$$$$  XXXXX",
"oooooooooooooo++oXXXXXXXXo++ooooooo  oo  ##$$$$##  $$$$$$  XXXXX",
"++++++++++++++++XXXXXXXXXX++X  XX  XXXX  ##$$######$$$$##  +++++",
"++++++++++++++++oXXXXXXXXo++o  oo  oooo  ##$$######$$$$##  +++++",
"oooooooooooooo++oXXXXXXXXo++ooX            ############  ooooooo",
"oooooooooooooo++oXXXXXXXXo++ooX            ############  ooooooo",
"ooooXXooooXXoo++oXXXXXXXXo++ooooo  @@@@@@OO..  ..++      XooooXX",
"ooooXXooooXXoo++XXXXXXXXXX++ooooo  @@@@@@OO..  ..++      XooooXX",
"XXXXXXXXXXXXXX++XXXXXXXXXX++ooo  @@@@    @@OO..  ..++  oX  ooooo",
"XXXXXXXXXXXXXX++XXXXXXXXXX++ooo  @@@@    @@OO..  ..++  oX  ooooo",
"ooooooooXoooXX++XXXXXXXXXX++ooX  @@@@    @@OO..  ..++  oXXo  ooo",
"ooooooooXoooXX++oXXXXXXXXX++ooX  @@@@    @@OO..  ..++  XXXo  ooo",
"oooooooXXXXXXX++XXXXXXXXXo++ooo  @@@@@@@@@@OO..  ..++  oX  ooooo",
"oooooooXXXXXXX++XXXXXX    ++ooo  @@@@@@@@@@OO..  ..++  oX  ooooo",
"ooooooooXXooXX++XXXXXX    ++ooooo  @@@@@@OO..  ..++      ooooooo",
"ooooooooXXoo      XX  ##$$  ooooo  @@@@@@OO..  ..++      ooooooo",
"ooooooooXXoo      XX  ##$$  ooXXooo            ..      oXooooooo",
"ooooooooXX  $$$$##  ##$$$$$$  XXooo            ..      oXooooooo",
"ooooooooXX  $$$$##  ##$$$$$$  ooooooooooooo      ooo+  oXXoooooo",
"ooooooooXX  $$$$$$  ##$$$$##  oo  ooooooooo      ooo+  oXXoooooo",
"ooooooooXX  $$$$$$  ##$$$$##  ++  +++++++++++++++  +++o  ooooooo",
"ooooooooXX  ##$$$$######$$##  ++++  ++  +++++++++  +++o  ooooooo",
"ooooooooXX  ##$$$$######$$##  oooo  oo  ooooooooo  o++o  Xoooooo",
"ooooooooXXoo  ############            ooooooooooo  o++o  Xoooooo",
"ooooooooXXXX  ############            XXXXXXXoooXXoo++ooXXoooooo",
"ooooooooXXXX      ++..  ..++@@@@@@  XXXXXXXXXoooXXoo++ooXXoooooo",
"ooooooooXXoo      ++..  ..++@@@@@@  ooooooooooooXXoo++oooooooooo",
"ooooooooXX  XX  ++..  ..++@@    @@@@  ooooooooooXXoo++oooooooooo",
"ooXoooooXX  XX  ++..  ..++@@    @@@@  ooooooooooXXoo++ooXXoooooo",
"ooXooooo  ooXX  ++..  ..++@@    @@@@  ooooooooooXXoo++ooXXoooooo",
"ooXXXXoo  XXXX  ++..  ..++@@    @@@@  ooooooooooXXoo++ooXXoooooo",
"ooXXXXooXX  XX  ++..  ..++@@@@@@@@@@  ooooooooooXXoo++ooXXoooooo",
"ooXXooooXX  XX  ++..  ..++@@@@@@@@@@  ooooooooooXXoo++oooooooooo",
"ooXXooooXXXX      ++..  ..++@@@@@@  ooooooooooooXXoo++oooooooooo",
"++++++++++++      ++..  ..++@@@@@@  ooooooooooooXXoo++++++++++++",
"++++++++++++++      ..            ooooooooooooooXXoo++++++++++++",
"ooXXooooXXoXXX      ..            ooooooooooooooXXoo++oXXXoooooo",
"ooXXooooXXoXXX  XXXX  XXoo++ooXXooooooooooooooooXXoo++oXXXoooooo",
"ooXXXXooXoXXXX  XXXX  XXoo++ooXXooooooooooooooooXXoo++ooXXooooXX",
"ooXXXXooXoXX  ++XX  XoXXXX++ooXXooooooooooooooooXXoo++ooXXooooXX",
"XXXXXXXXXXXX  ++XX  XXXXXX++ooXXooooooooooooooooXXoo++ooXXoXoooo",
"XXXXXXXXXXXX  ++XX  XXXXXX++ooXXooooooooooooooooXXoo++ooXXoooooo",
"oooooooooXXX  ++XX  oXXXXo++ooXXooooooooooooooooXXoo++ooXXoooooo",
"oooooXooooXXXX++XXXXoXXXXo++ooXXooooooooooooooooXXoo++ooXXXooooo",
"ooooXXoXXoXXXX++XXXXooXXoo++ooXXooooooooooooooooXXoo++ooXXoooooo",
"ooooXXXXXoXXXo++XXXXooXXoo++ooXXooooooooooooooooXXoo++ooXXoooooo",
"ooooXoooooXXoo++XXoXooXXoo++ooXXooooooooooooooooXXoo++oXXXoooooo",
"ooooooooooXXoo++XXXXooXXoo++ooXXooooooooooooooooXXoo++ooXXXooooo",
"ooooooooooXXoo++XXXXooXXoo++ooXXoooXXXXXXXXXooooXXoo++ooXXoooooo",
"oooooooooooXoo++XoooooXXoo++ooXXoooXXXXXXXXXooooXXoo++ooXXoooooo",
"ooooooooooXXoo++XoooooXXoo++ooXXoooooooooooooooooooo++ooXXoooooo",
"ooooooooooXXoo++XoXXooXXoo++oooooooooooooooooooooooo++ooXXoooooo",
"oooooooooooooo++ooXXooXXoo++++++++++++++++++++++++++++ooXXoooooo",
"oooooooooooooo++oooooooooo++++++++++++++++++++++++++++ooXXoooooo"
};
